<svg width="33" height="28" viewBox="0 0 33 28" fill="none" xmlns="http://www.w3.org/2000/svg">
<path fill-rule="evenodd" clip-rule="evenodd" d="M2.35591 2.45651C3.86485 0.948017 5.91115 0.100595 8.04479 0.100595C10.1784 0.100595 12.2247 0.948017 13.7337 2.45651L16.0913 4.81212L18.4489 2.45651C19.1912 1.68798 20.0791 1.07498 21.0608 0.65327C22.0425 0.23156 23.0984 0.00958801 24.1668 0.00030381C25.2352 -0.00898039 26.2947 0.19461 27.2836 0.599196C28.2725 1.00378 29.1709 1.60126 29.9264 2.35677C30.6819 3.11228 31.2794 4.01069 31.684 4.99957C32.0886 5.98846 32.2922 7.04802 32.2829 8.11643C32.2736 9.18484 32.0516 10.2407 31.6299 11.2224C31.2082 12.2041 30.5952 13.092 29.8267 13.8343L16.0913 27.5717L2.35591 13.8343C0.847421 12.3253 0 10.279 0 8.14539C0 6.01174 0.847421 3.96545 2.35591 2.45651Z" fill="#4E4C55"/>
</svg>
